<svg xmlns="http://www.w3.org/2000/svg" xmlns:xlink="http://www.w3.org/1999/xlink" width="1440px" height="1024px" viewBox="0 0 1440 1024" version="1.1"><defs><linearGradient x1="100%" y1="0%" x2="0%" y2="100%" id="linearGradient-1"><stop stop-color="#10DFEE" offset="0%"/><stop stop-color="#2A5AA8" offset="54.7407194%"/><stop stop-color="#14276B" offset="100%"/></linearGradient><linearGradient x1="50%" y1="0%" x2="50%" y2="100%" id="linearGradient-2"><stop stop-color="#000000" stop-opacity="0" offset="0%"/><stop stop-color="#190D31" stop-opacity="0.9" offset="100%"/></linearGradient><linearGradient x1="73.3496094%" y1="30.0315857%" x2="0%" y2="101.029968%" id="linearGradient-3"><stop stop-color="#2D48A1" stop-opacity="0.2" offset="0%"/><stop stop-color="#371E51" offset="100%"/></linearGradient><rect id="path-4" x="389" y="233" width="1440" height="1024"/></defs><g id="Assets" stroke="none" stroke-width="1" fill="none" fill-rule="evenodd"><g id="mgo-wallet---sign-in"><g id="background" transform="translate(-389.000000, -233.000000)"><use fill="url(#linearGradient-1)" xlink:href="#path-4"/><use fill="url(#linearGradient-2)" xlink:href="#path-4"/><use fill="url(#linearGradient-3)" xlink:href="#path-4"/><circle id="Oval" fill-opacity="0.2" fill="#6B2A5E" cx="702" cy="993" r="25"/><circle id="Oval" fill-opacity="0.2" fill="#6B2A5E" cx="578" cy="858" r="15"/><circle id="Oval" fill-opacity="0.1" fill="#12D0E4" cx="663" cy="733" r="30"/><circle id="Oval" fill-opacity="0.05" fill="#12D0E4" cx="677" cy="1007" r="15"/><circle id="Oval" fill-opacity="0.1" fill="#12D0E4" cx="1650" cy="695" r="30"/><circle id="Oval" fill-opacity="0.1" fill="#12D0E4" cx="1530" cy="855" r="20"/><circle id="Oval" fill-opacity="0.2" fill="#A44290" cx="1450" cy="655" r="10"/><circle id="Oval" fill-opacity="0.2" fill="#A44290" cx="1683" cy="723" r="25"/><path d="M1933.27455 113.189364L2050.22793 233.019369 1823.23502 466.411808 1594.49545 231.90016 1822.50725-9.66338121e-13 1882.25754 60.884984 1714.72382 233.541667 1823.23502 344.716454 1931.60067 233.690895 1875.78035 176.238152 1933.27455 113.189364ZM1998.78152 371.324405L2058.9277 431.964286 1888.35401 604.285714 1828.28145 665 1597.63521 432.03869 1657.70777 371.324405 1828.28145 543.645833 1998.78152 371.324405ZM2098.23989 270.729167L2215.73475 389.404762 2155.2941 451.235119 2037.94647 332.113095 2098.23989 270.729167ZM1556.33532 269.53869L1618.39558 332.113095 1501.19519 451.160714 1437.51533 388.58631 1556.33532 269.53869ZM495.759218 1011.18936L612.712603 1131.01937 385.719693 1364.41181 156.980123 1129.90016 384.991918 898 444.742216 958.884984 277.208494 1131.54167 385.719693 1242.71645 494.085337 1131.69089 438.265022 1074.23815 495.759218 1011.18936ZM561.266188 1269.3244L621.412368 1329.96429 450.838685 1502.28571 390.766124 1563 160.119879 1330.03869 220.192441 1269.3244 390.766124 1441.64583 561.266188 1269.3244ZM660.724559 1168.72917L778.219423 1287.40476 717.778769 1349.23512 600.431143 1230.1131 660.724559 1168.72917ZM118.819993 1167.53869L180.88025 1230.1131 63.67986 1349.16071 0 1286.58631 118.819993 1167.53869Z" id="logobgd" fill="#FFFFFF" opacity="0.03"/></g></g></g></svg>