<svg xmlns="http://www.w3.org/2000/svg" width="28" height="20" viewBox="0 0 28 20" version="1.1"><defs><rect x="0" y="0" width="28" height="20" rx="2"/></defs><g stroke="none" stroke-width="1" fill="none" fill-rule="evenodd"><g transform="translate(-665.000000, -873.000000)"><g transform="translate(625.000000, 813.000000)"><g transform="translate(40.000000, 60.000000)"><mask fill="white"/><use fill="#FFFFFF"/><rect fill="#F1361D" mask="url(#mask-2)" x="0" y="0" width="28" height="20"/><path d="M13.5 6L12.7 6.5 12.7 5.5 12.2 4.7 13.2 4.7 14 4.2 14 5.2 14.5 6 13.5 6ZM11 3.3L10.1 3.1 10.7 2.4 10.9 1.4 11.6 2.1 12.6 2.2 11.9 3 11.8 3.9 11 3.3ZM11.5 12L10.7 12.5 10.7 11.5 10.2 10.7 11.1 10.7 12 10.2 12 11.1 12.5 12 11.5 12ZM13.2 9.3L12.2 9.4 12.7 8.6 12.6 7.6 13.4 8 14.4 7.9 14 8.8 14.1 9.8 13.2 9.3Z" fill="#FFDC42" mask="url(#mask-2)"/><polygon fill="#FFDC42" mask="url(#mask-2)" points="6.7 8.2 4.3 9.9 5.2 7.1 2.9 5.4 5.7 5.4 6.7 2.7 7.6 5.4 10.5 5.4 8.2 7.1 9 9.9"/></g></g></g></g></svg>