<svg xmlns="http://www.w3.org/2000/svg" width="512" height="512" viewBox="0 0 512 512"><path fill="#fff" opacity=".7" d="M256 96C144.341 96 47.559 161.021 0 256c47.559 94.979 144.341 160 256 160 111.656 0 208.438-65.021 256-160-47.558-94.979-144.344-160-256-160zm126.225 84.852c30.081 19.187 55.571 44.887 74.717 75.148-19.146 30.261-44.637 55.961-74.718 75.148C344.427 355.257 300.779 368 256 368c-44.78 0-88.429-12.743-126.226-36.852C99.695 311.962 74.205 286.262 55.058 256c19.146-30.262 44.637-55.962 74.717-75.148a233.42 233.42 0 0 1 5.93-3.65C130.725 190.866 128 205.613 128 221c0 70.691 57.308 128 128 128s128-57.309 128-128c0-15.387-2.726-30.134-7.704-43.799a240.69 240.69 0 0 1 5.929 3.651zM256 208c0 26.51-21.49 48-48 48s-48-21.49-48-48 21.49-48 48-48 48 21.491 48 48z"/></svg>