<svg xmlns="http://www.w3.org/2000/svg" xmlns:xlink="http://www.w3.org/1999/xlink" width="28" height="20" viewBox="0 0 28 20" version="1.1"><defs><rect id="path-1" x="0" y="0" width="28" height="20" rx="2"/><circle id="path-3" cx="4.7" cy="4.7" r="4.7"/></defs><g id="Assets" stroke="none" stroke-width="1" fill="none" fill-rule="evenodd"><g id="mgo-wallet---change-language" transform="translate(-665.000000, -833.000000)"><g id="language-dialog" transform="translate(625.000000, 813.000000)"><g id="KR" transform="translate(40.000000, 20.000000)"><mask id="mask-2" fill="white"><use xlink:href="#path-1"/></mask><rect stroke="#F5F5F5" stroke-width="0.5" x="0.3" y="0.3" width="27.5" height="19.5" rx="2"/><g id="Oval-9" mask="url(#mask-2)"><g transform="translate(9.333333, 5.333333)"><mask id="mask-4" fill="white"><use xlink:href="#path-3"/></mask><use id="Mask" stroke="none" fill="#E01B41" fill-rule="evenodd" xlink:href="#path-3"/><path d="M0 5.3C1.3 6.6 3.3 7.3 4.7 5.3 6 3.3 8.7 3.3 9.3 5.3 10 7.3 9.3 9.3 9.3 9.3L0 9.3C0 9.3-1.3 4.1 0 5.3Z" id="Rectangle-277" stroke="none" fill="#0E4B9C" fill-rule="evenodd" mask="url(#mask-4)"/></g></g><path d="M18.9 5.2C18.8 5.1 18.9 4.9 19.1 4.8L19.6 4.4C19.8 4.3 20 4.4 20.1 4.6L21.8 7.4C21.9 7.6 21.8 7.8 21.6 7.9L21.1 8.2C20.9 8.3 20.7 8.3 20.6 8.1L18.9 5.2ZM20.7 4.2C20.6 4.1 20.6 3.9 20.8 3.8L21.4 3.4C21.5 3.3 21.7 3.4 21.8 3.6L23.5 6.4C23.6 6.6 23.5 6.8 23.4 6.9L22.8 7.2C22.6 7.3 22.4 7.3 22.3 7.1L20.7 4.2ZM4.5 13.6C4.4 13.4 4.5 13.2 4.6 13.1L5.2 12.8C5.4 12.7 5.6 12.7 5.7 12.9L7.3 15.8C7.4 15.9 7.4 16.1 7.2 16.2L6.6 16.6C6.5 16.7 6.3 16.6 6.2 16.4L4.5 13.6ZM6.2 12.6C6.1 12.4 6.2 12.2 6.4 12.1L6.9 11.8C7.1 11.7 7.3 11.7 7.4 11.9L9.1 14.8C9.2 14.9 9.1 15.1 8.9 15.2L8.4 15.6C8.2 15.7 8 15.6 7.9 15.4L6.2 12.6ZM20.6 11.9C20.7 11.7 20.9 11.7 21.1 11.8L21.6 12.1C21.8 12.2 21.9 12.4 21.8 12.6L20.1 15.4C20 15.6 19.8 15.7 19.6 15.6L19.1 15.2C18.9 15.1 18.8 14.9 18.9 14.8L20.6 11.9ZM22.3 12.9C22.4 12.7 22.6 12.7 22.8 12.8L23.4 13.1C23.5 13.2 23.6 13.4 23.5 13.6L21.8 16.4C21.7 16.6 21.5 16.7 21.4 16.6L20.8 16.2C20.6 16.1 20.6 15.9 20.7 15.8L22.3 12.9ZM6.2 3.6C6.3 3.4 6.5 3.3 6.6 3.4L7.2 3.8C7.4 3.9 7.4 4.1 7.3 4.2L5.7 7.1C5.6 7.3 5.4 7.3 5.2 7.2L4.6 6.9C4.5 6.8 4.4 6.6 4.5 6.4L6.2 3.6ZM7.9 4.6C8 4.4 8.2 4.3 8.4 4.4L8.9 4.8C9.1 4.9 9.2 5.1 9.1 5.2L7.4 8.1C7.3 8.3 7.1 8.3 6.9 8.2L6.4 7.9C6.2 7.8 6.1 7.6 6.2 7.4L7.9 4.6Z" id="Rectangle-278" fill="#262626" opacity="0.8" mask="url(#mask-2)"/></g></g></g></g></svg>