<svg xmlns="http://www.w3.org/2000/svg" xmlns:xlink="http://www.w3.org/1999/xlink" width="28" height="20" viewBox="0 0 28 20" version="1.1"><defs><rect id="path-1" x="0" y="0" width="28" height="20" rx="2"/><linearGradient x1="50" y1="0" x2="50" y2="100" id="linearGradient-3"><stop stop-color="#FFFFFF" offset="0"/><stop stop-color="#F0F0F0" offset="100"/></linearGradient><path d="M2 2.7C1.6 2.7 1.3 2.4 1.3 2 1.3 1.6 1.6 1.3 2 1.3 2.4 1.3 2.7 1.6 2.7 2 2.7 2.4 2.4 2.7 2 2.7ZM4.7 2.7C4.3 2.7 4 2.4 4 2 4 1.6 4.3 1.3 4.7 1.3 5 1.3 5.3 1.6 5.3 2 5.3 2.4 5 2.7 4.7 2.7ZM7.3 2.7C7 2.7 6.7 2.4 6.7 2 6.7 1.6 7 1.3 7.3 1.3 7.7 1.3 8 1.6 8 2 8 2.4 7.7 2.7 7.3 2.7ZM10 2.7C9.6 2.7 9.3 2.4 9.3 2 9.3 1.6 9.6 1.3 10 1.3 10.4 1.3 10.7 1.6 10.7 2 10.7 2.4 10.4 2.7 10 2.7ZM3.3 4C3 4 2.7 3.7 2.7 3.3 2.7 3 3 2.7 3.3 2.7 3.7 2.7 4 3 4 3.3 4 3.7 3.7 4 3.3 4ZM6 4C5.6 4 5.3 3.7 5.3 3.3 5.3 3 5.6 2.7 6 2.7 6.4 2.7 6.7 3 6.7 3.3 6.7 3.7 6.4 4 6 4ZM8.7 4C8.3 4 8 3.7 8 3.3 8 3 8.3 2.7 8.7 2.7 9 2.7 9.3 3 9.3 3.3 9.3 3.7 9 4 8.7 4ZM10 5.3C9.6 5.3 9.3 5 9.3 4.7 9.3 4.3 9.6 4 10 4 10.4 4 10.7 4.3 10.7 4.7 10.7 5 10.4 5.3 10 5.3ZM7.3 5.3C7 5.3 6.7 5 6.7 4.7 6.7 4.3 7 4 7.3 4 7.7 4 8 4.3 8 4.7 8 5 7.7 5.3 7.3 5.3ZM4.7 5.3C4.3 5.3 4 5 4 4.7 4 4.3 4.3 4 4.7 4 5 4 5.3 4.3 5.3 4.7 5.3 5 5 5.3 4.7 5.3ZM2 5.3C1.6 5.3 1.3 5 1.3 4.7 1.3 4.3 1.6 4 2 4 2.4 4 2.7 4.3 2.7 4.7 2.7 5 2.4 5.3 2 5.3ZM3.3 6.7C3 6.7 2.7 6.4 2.7 6 2.7 5.6 3 5.3 3.3 5.3 3.7 5.3 4 5.6 4 6 4 6.4 3.7 6.7 3.3 6.7ZM6 6.7C5.6 6.7 5.3 6.4 5.3 6 5.3 5.6 5.6 5.3 6 5.3 6.4 5.3 6.7 5.6 6.7 6 6.7 6.4 6.4 6.7 6 6.7ZM8.7 6.7C8.3 6.7 8 6.4 8 6 8 5.6 8.3 5.3 8.7 5.3 9 5.3 9.3 5.6 9.3 6 9.3 6.4 9 6.7 8.7 6.7ZM10 8C9.6 8 9.3 7.7 9.3 7.3 9.3 7 9.6 6.7 10 6.7 10.4 6.7 10.7 7 10.7 7.3 10.7 7.7 10.4 8 10 8ZM7.3 8C7 8 6.7 7.7 6.7 7.3 6.7 7 7 6.7 7.3 6.7 7.7 6.7 8 7 8 7.3 8 7.7 7.7 8 7.3 8ZM4.7 8C4.3 8 4 7.7 4 7.3 4 7 4.3 6.7 4.7 6.7 5 6.7 5.3 7 5.3 7.3 5.3 7.7 5 8 4.7 8ZM2 8C1.6 8 1.3 7.7 1.3 7.3 1.3 7 1.6 6.7 2 6.7 2.4 6.7 2.7 7 2.7 7.3 2.7 7.7 2.4 8 2 8Z" id="path-4"/><filter x="-5.4" y="-7.5" width="110.7" height="130" filterUnits="objectBoundingBox" id="filter-5"><feOffset dx="0" dy="1" in="SourceAlpha" result="shadowOffsetOuter1"/><feColorMatrix values="0" type="matrix" in="shadowOffsetOuter1"/></filter></defs><g id="Assets" stroke="none" stroke-width="1" fill="none" fill-rule="evenodd"><g id="mgo-wallet---change-language" transform="translate(-665.000000, -953.000000)"><g id="language-dialog" transform="translate(625.000000, 813.000000)"><g id="US-Copy" transform="translate(40.000000, 140.000000)"><mask id="mask-2" fill="white"><use xlink:href="#path-1"/></mask><use id="Mask" fill="#FFFFFF" xlink:href="#path-1"/><path d="M0 0L28 0 28 1.3 0 1.3 0 0ZM0 2.7L28 2.7 28 4 0 4 0 2.7ZM0 5.3L28 5.3 28 6.7 0 6.7 0 5.3ZM0 8L28 8 28 9.3 0 9.3 0 8ZM0 10.7L28 10.7 28 12 0 12 0 10.7ZM0 13.3L28 13.3 28 14.7 0 14.7 0 13.3ZM0 16L28 16 28 17.3 0 17.3 0 16ZM0 18.7L28 18.7 28 20 0 20 0 18.7Z" id="Rectangle-511" fill="#D02F44" mask="url(#mask-2)"/><rect id="Rectangle-511" fill="#46467F" mask="url(#mask-2)" x="0" y="0" width="12" height="9.3"/><g id="Oval-43" mask="url(#mask-2)"><use fill="black" fill-opacity="1" filter="url(#filter-5)" xlink:href="#path-4"/><use fill="url(#linearGradient-3)" fill-rule="evenodd" xlink:href="#path-4"/></g></g></g></g></g></svg>