<svg xmlns="http://www.w3.org/2000/svg" width="262" height="88" viewBox="0 0 262 88" version="1.1"><g stroke="none" stroke-width="1" fill="none" fill-rule="evenodd"><g transform="translate(-589.000000, -114.000000)" fill="#FFFFFF"><g transform="translate(588.000000, 114.000000)"><g transform="translate(33.000000, 0.000000)"><g transform="translate(45.962733, 9.166667)"><path d="M21.4 16.8L18.2 5.1 13.6 16C13.4 16.3 13.2 16.6 13 16.8 12.7 17 12.4 17.1 12.1 17.1 11.4 17.1 10.9 16.7 10.6 16L6 5.1 2.8 16.8 0 16.8 4.2 1.2C4.4 0.4 4.9 0 5.7 0 6 0 6.2 0.1 6.5 0.3 6.8 0.4 7 0.7 7.1 1L12.2 12.7 17.3 1C17.5 0.3 18 0 18.6 0 19.3 0 19.8 0.4 20 1.2L24.2 16.8 21.4 16.8ZM33.9 16.8C32.7 16.8 31.7 16.6 30.7 16.2 29.7 15.7 28.9 15.1 28.2 14.4 27.4 13.6 26.9 12.7 26.5 11.7 26.1 10.7 25.9 9.6 25.9 8.4 25.9 7.1 26.1 6 26.5 5 26.9 4 27.4 3.1 28.2 2.4 28.9 1.7 29.7 1.2 30.7 0.8 31.7 0.4 32.7 0.2 33.9 0.2L37.9 0.2C39.1 0.2 40.2 0.4 41.2 0.8 42.1 1.2 43 1.8 43.7 2.5 44.4 3.2 45 4 45.3 5 45.7 6 45.9 7.1 45.9 8.4 45.9 9.6 45.7 10.7 45.3 11.7 44.9 12.7 44.4 13.6 43.7 14.4 42.9 15.1 42.1 15.7 41.1 16.2 40.1 16.6 39.1 16.8 37.9 16.8L33.9 16.8ZM37.9 13.9C38.6 13.9 39.3 13.8 40 13.5 40.6 13.2 41.1 12.9 41.6 12.4 42.1 11.9 42.4 11.3 42.7 10.7 42.9 10 43.1 9.3 43.1 8.5 43.1 7.7 42.9 7 42.7 6.3 42.4 5.7 42.1 5.1 41.6 4.6 41.1 4.1 40.6 3.8 40 3.5 39.3 3.2 38.6 3.1 37.9 3.1L33.9 3.1C33.1 3.1 32.5 3.2 31.8 3.5 31.2 3.8 30.7 4.1 30.2 4.6 29.8 5.1 29.4 5.7 29.1 6.3 28.9 7 28.8 7.7 28.8 8.5 28.8 9.3 28.9 10 29.1 10.7 29.4 11.3 29.8 11.9 30.2 12.4 30.7 12.9 31.2 13.2 31.8 13.5 32.5 13.8 33.1 13.9 33.9 13.9L37.9 13.9ZM49.4 16.8L49.4 0.2 61.4 0.2C62.2 0.2 62.9 0.3 63.6 0.5 64.3 0.7 64.8 0.9 65.3 1.3 65.8 1.7 66.1 2.1 66.4 2.6 66.6 3.2 66.8 3.8 66.8 4.5 66.8 5 66.7 5.5 66.6 5.9 66.5 6.3 66.3 6.6 66.1 6.9 65.9 7.2 65.6 7.4 65.4 7.6 65.1 7.8 64.8 8 64.5 8.1 65.2 8.3 65.9 8.7 66.3 9.4 66.8 10 67.1 10.8 67.1 11.8 67.1 12.6 66.9 13.2 66.7 13.9 66.4 14.5 66.1 15 65.6 15.5 65.2 15.9 64.6 16.2 63.9 16.5 63.3 16.7 62.6 16.8 61.8 16.8L49.4 16.8 49.4 16.8ZM54.3 9.6L54.3 7.2 61.4 7.2C62.3 7.2 62.9 7 63.3 6.7 63.6 6.4 63.8 5.9 63.8 5.1 63.8 4.7 63.8 4.4 63.6 4.1 63.4 3.8 63.2 3.6 62.9 3.5 62.6 3.3 62.2 3.2 61.8 3.2 61.3 3.1 60.9 3.1 60.3 3.1L52.3 3.1 52.3 13.9 60.6 13.9C61.1 13.9 61.6 13.9 62 13.8 62.4 13.8 62.8 13.6 63.1 13.5 63.5 13.3 63.7 13.1 63.9 12.8 64.1 12.5 64.1 12.2 64.1 11.8 64.1 11.1 63.9 10.5 63.5 10.2 63.1 9.8 62.5 9.6 61.6 9.6L54.3 9.6 54.3 9.6Z"/><polygon points="70.9 16.8 70.9 0.2 73.7 0.2 73.7 16.8"/><polygon points="77.9 16.8 77.9 0.2 80.8 0.2 80.8 13.9 91.8 13.9 91.8 16.8 77.9 16.8"/><path d="M95 16.8L95 0.2 109.7 0.2 109.7 3.1 97.9 3.1 97.9 13.9 109.7 13.9 109.7 16.8 95 16.8 95 16.8ZM100 9.6L100 7.2 109.1 7.2 109.1 9.6 100 9.6Z" fill-rule="nonzero"/></g><g transform="translate(158.592133, 9.166667)"><path d="M8 16.6C6.9 16.6 5.8 16.4 4.9 16 3.9 15.6 3 15 2.3 14.2 1.6 13.5 1 12.6 0.6 11.5 0.2 10.5 0 9.4 0 8.2 0 6.9 0.2 5.8 0.6 4.8 1 3.8 1.6 3 2.3 2.2 3 1.5 3.9 1 4.9 0.6 5.8 0.2 6.9 0 8 0L17 0 17 2.9 8 2.9C7.3 2.9 6.6 3.1 6 3.3 5.4 3.6 4.8 4 4.4 4.4 3.9 4.9 3.6 5.5 3.3 6.1 3 6.8 2.9 7.5 2.9 8.3 2.9 9.1 3 9.8 3.3 10.5 3.6 11.1 3.9 11.7 4.4 12.2 4.8 12.7 5.4 13.1 6 13.3 6.6 13.6 7.3 13.7 8 13.7L15.1 13.7 15.1 9.4 7.7 9.4 7.7 7 18 7 18 16.6 8 16.6ZM29.3 16.6C28.2 16.6 27.1 16.4 26.1 16 25.2 15.6 24.3 15 23.6 14.2 22.9 13.5 22.3 12.6 21.9 11.5 21.5 10.5 21.3 9.4 21.3 8.2 21.3 6.9 21.5 5.8 21.9 4.8 22.3 3.8 22.9 3 23.6 2.2 24.3 1.5 25.2 1 26.1 0.6 27.1 0.2 28.2 0 29.3 0L33.3 0C34.5 0 35.6 0.2 36.6 0.6 37.6 1 38.4 1.6 39.2 2.3 39.9 3 40.4 3.9 40.8 4.9 41.2 5.9 41.4 7 41.4 8.2 41.4 9.4 41.2 10.5 40.8 11.5 40.4 12.6 39.8 13.5 39.1 14.2 38.4 15 37.5 15.6 36.6 16 35.6 16.4 34.5 16.6 33.3 16.6L29.3 16.6ZM33.3 13.7C34.1 13.7 34.8 13.6 35.4 13.3 36 13.1 36.6 12.7 37.1 12.2 37.5 11.7 37.9 11.1 38.1 10.5 38.4 9.8 38.5 9.1 38.5 8.3 38.5 7.5 38.4 6.8 38.1 6.1 37.9 5.5 37.5 4.9 37.1 4.4 36.6 4 36 3.6 35.4 3.3 34.8 3.1 34.1 2.9 33.3 2.9L29.3 2.9C28.6 2.9 27.9 3.1 27.3 3.3 26.6 3.6 26.1 4 25.6 4.4 25.2 4.9 24.8 5.5 24.6 6.1 24.3 6.8 24.2 7.5 24.2 8.3 24.2 9.1 24.3 9.8 24.6 10.5 24.8 11.1 25.2 11.7 25.6 12.2 26.1 12.7 26.6 13.1 27.3 13.3 27.9 13.6 28.6 13.7 29.3 13.7L33.3 13.7Z"/></g><g transform="translate(8.281573, -0.000000)"><polygon points="17.8 6 14.8 9.3 17.8 12.3 12 18.1 6.3 12.3 15.2 3.2 12 0 0 12.2 12 24.5 24 12.3"/></g><g transform="translate(-0.000000, 14.166667)"><path d="M29.6 5.4L20.6 14.4 11.6 5.4 8.5 8.6 20.6 20.8 23.8 17.6 32.7 8.6 29.6 5.4ZM34.8 0.1L31.6 3.3 37.8 9.6 41 6.3 34.8 0.1ZM6.3 0L0 6.3 3.4 9.6 9.5 3.3 6.3 0Z"/></g></g><text font-family="Montserrat-Bold, Montserrat" font-size="60" font-weight="bold"><tspan x="0.4" y="88">WALLET</tspan></text></g></g></g></svg>